<?xml version="1.0" standalone="no"?>
<!DOCTYPE svg PUBLIC "-//W3C//DTD SVG 20010904//EN"
 "http://www.w3.org/TR/2001/REC-SVG-20010904/DTD/svg10.dtd">
<svg version="1.0" xmlns="http://www.w3.org/2000/svg"
 width="512.000000pt" height="120.000000pt" viewBox="0 0 512.000000 120.000000"
 preserveAspectRatio="xMidYMid meet">

<g transform="translate(0.000000,120.000000) scale(0.100000,-0.100000)"
fill="#000000" stroke="none">
<path d="M422 1020 c-27 -24 -39 -29 -60 -23 -62 16 -65 13 -102 -66 -3 -8
-20 -19 -36 -24 -50 -16 -57 -27 -50 -76 5 -37 2 -49 -19 -77 -31 -41 -31 -55
0 -84 23 -22 25 -29 20 -75 -8 -57 0 -68 52 -80 27 -5 34 -13 43 -46 13 -47
36 -62 80 -49 36 10 55 4 84 -29 24 -26 38 -26 62 0 29 33 48 39 84 29 44 -13
67 2 80 49 9 33 16 41 43 46 52 12 60 23 52 80 -5 46 -3 53 20 75 31 29 31 43
0 85 -22 27 -25 39 -19 74 8 49 -5 68 -52 77 -29 5 -35 12 -44 44 -14 53 -30
64 -76 51 -40 -11 -58 -5 -88 28 -25 28 -35 27 -74 -9z m136 -86 c89 -37 145
-124 146 -224 1 -137 -101 -240 -239 -240 -137 0 -239 102 -239 240 0 100 50
181 139 221 50 23 142 25 193 3z"/>
<path d="M398 916 c-57 -21 -85 -42 -116 -88 -23 -36 -27 -51 -27 -118 0 -67
4 -82 27 -118 15 -22 49 -54 75 -69 97 -57 229 -25 291 70 23 36 27 52 27 119
0 69 -3 80 -30 120 -55 78 -165 115 -247 84z m200 -120 c3 -13 -24 -47 -84
-107 -49 -49 -93 -89 -99 -89 -20 0 -87 77 -83 96 5 28 36 29 64 3 l25 -23 72
72 c71 72 98 84 105 48z"/>
<path d="M2420 1026 c-15 -19 -9 -56 11 -69 23 -14 66 -1 72 22 11 45 -53 82
-83 47z"/>
<path d="M2642 1030 c-27 -11 -56 -73 -47 -101 5 -15 1 -19 -20 -19 -24 0 -26
-3 -23 -32 2 -25 8 -34 26 -36 22 -3 22 -6 22 -133 l0 -129 40 0 40 0 0 130 0
130 45 0 c45 0 45 0 45 35 0 35 0 35 -45 35 -41 0 -45 2 -45 24 0 34 22 48 63
41 32 -6 35 -5 40 22 3 16 0 31 -6 35 -17 11 -107 9 -135 -2z"/>
<path d="M2826 1024 c-30 -29 -10 -74 32 -74 33 0 52 16 52 45 0 43 -53 61
-84 29z"/>
<path d="M3922 1028 c-7 -7 -12 -21 -12 -33 0 -29 19 -45 52 -45 36 0 56 36
39 69 -13 23 -59 29 -79 9z"/>
<path d="M1247 1006 c-69 -26 -109 -80 -122 -168 -15 -102 31 -203 109 -239
81 -37 178 -20 229 40 34 41 34 64 2 79 -34 15 -45 15 -45 -1 0 -23 -45 -57
-82 -63 -47 -8 -96 18 -114 61 -18 44 -18 126 1 171 28 68 130 82 179 24 l23
-28 31 20 c31 20 32 20 16 48 -9 15 -30 35 -46 45 -40 23 -133 29 -181 11z"/>
<path d="M2193 973 c-7 -2 -13 -18 -13 -34 0 -24 -4 -29 -25 -29 -22 0 -25 -4
-25 -35 0 -31 3 -35 25 -35 l25 0 0 -101 c0 -98 1 -101 29 -130 24 -23 38 -29
73 -29 60 0 82 17 69 53 -9 23 -15 26 -36 21 -44 -11 -55 9 -55 102 l0 84 45
0 c45 0 45 0 45 35 0 35 0 35 -45 35 -45 0 -45 0 -45 35 0 32 -3 35 -27 34
-16 0 -34 -3 -40 -6z"/>
<path d="M3693 973 c-7 -2 -13 -18 -13 -34 0 -24 -4 -29 -25 -29 -22 0 -25 -4
-25 -35 0 -30 3 -35 24 -35 24 0 24 -2 28 -106 3 -102 4 -107 31 -130 20 -17
40 -24 71 -24 57 0 80 17 71 53 -7 25 -11 27 -37 22 -48 -11 -58 6 -58 101 l0
84 45 0 c45 0 45 0 45 35 0 35 0 35 -45 35 -45 0 -45 0 -45 35 0 32 -3 35 -27
34 -16 0 -34 -3 -40 -6z"/>
<path d="M1624 900 c-27 -11 -72 -65 -80 -96 -11 -44 2 -133 23 -162 32 -44
80 -64 146 -59 46 3 63 9 87 32 37 35 37 38 4 60 -25 16 -27 16 -48 -4 -33
-31 -89 -28 -115 5 -39 49 -31 54 83 54 59 0 108 4 111 10 3 6 3 31 -1 58 -5
34 -16 56 -40 80 -29 29 -37 32 -90 31 -33 0 -68 -4 -80 -9z m120 -72 c29 -41
21 -48 -54 -48 -62 0 -69 2 -63 18 19 54 88 72 117 30z"/>
<path d="M1910 744 l0 -165 38 3 37 3 5 108 c5 101 7 110 30 129 16 13 33 18
51 14 23 -4 27 -1 33 26 3 16 3 34 0 39 -9 16 -61 10 -87 -11 -25 -20 -25 -20
-30 0 -4 15 -14 20 -41 20 l-36 0 0 -166z"/>
<path d="M2420 744 l0 -165 38 3 37 3 3 163 2 162 -40 0 -40 0 0 -166z"/>
<path d="M2822 748 l3 -163 38 -3 37 -3 0 165 0 166 -40 0 -40 0 2 -162z"/>
<path d="M3049 887 c-97 -64 -90 -235 11 -288 65 -35 158 -19 194 33 22 31 20
43 -10 57 -23 10 -29 9 -50 -14 -30 -32 -83 -34 -110 -4 -28 31 -27 121 3 150
29 30 80 30 104 0 l19 -23 30 22 c28 20 29 23 15 44 -21 32 -57 46 -119 46
-38 0 -62 -6 -87 -23z"/>
<path d="M3358 889 c-41 -21 -45 -33 -24 -62 13 -17 16 -17 54 3 51 27 96 24
100 -7 4 -25 -12 -35 -83 -52 -68 -17 -95 -44 -95 -95 0 -23 6 -48 13 -57 34
-45 114 -53 151 -16 l23 23 27 -23 c27 -23 61 -29 83 -15 17 11 4 59 -18 65
-17 5 -19 15 -19 104 -1 102 -7 120 -47 141 -34 19 -123 14 -165 -9z m142
-163 c0 -7 -5 -27 -11 -45 -20 -57 -94 -53 -94 5 0 24 5 30 40 40 53 17 65 17
65 0z"/>
<path d="M3920 744 l0 -165 38 3 37 3 3 163 2 162 -40 0 -40 0 0 -166z"/>
<path d="M4143 891 c-83 -52 -93 -204 -17 -270 19 -17 46 -34 60 -37 40 -10
114 2 143 23 78 58 82 203 7 273 -38 34 -146 41 -193 11z m115 -52 c37 -13 57
-62 49 -116 -8 -48 -33 -73 -74 -73 -50 0 -73 29 -73 91 0 58 12 87 43 99 12
5 22 9 23 9 1 1 15 -4 32 -10z"/>
<path d="M4470 744 l0 -165 38 3 37 3 5 112 c6 125 16 146 70 146 49 0 55 -13
58 -144 l4 -120 36 3 37 3 3 95 c6 184 -15 230 -107 230 -39 0 -56 -6 -80 -26
l-31 -26 0 26 c0 23 -4 26 -35 26 l-35 0 0 -166z"/>
<path d="M4861 884 c-25 -20 -31 -34 -31 -64 0 -52 24 -78 94 -98 64 -19 89
-43 68 -64 -19 -19 -81 -13 -106 11 l-22 21 -22 -23 c-31 -33 -28 -45 21 -67
114 -52 237 9 210 105 -11 36 -58 70 -111 79 -48 7 -70 29 -52 51 16 20 60 19
89 -1 22 -15 24 -15 43 4 41 40 -2 72 -97 72 -43 0 -60 -5 -84 -26z"/>
<path d="M2321 411 c-19 -12 -6 -43 16 -39 10 2 18 12 18 22 0 22 -14 29 -34
17z"/>
<path d="M4184 405 c-7 -18 3 -35 21 -35 21 0 28 19 15 35 -16 19 -29 19 -36
0z"/>
<path d="M325 391 c-15 -7 -27 -34 -48 -116 -15 -59 -26 -109 -23 -112 2 -2
19 3 37 13 35 18 42 14 74 -41 9 -15 17 5 43 100 l33 119 -28 22 c-29 24 -54
28 -88 15z"/>
<path d="M517 376 l-28 -22 33 -119 c26 -95 34 -115 43 -100 32 55 39 59 74
41 18 -10 35 -15 37 -13 3 3 -8 53 -23 112 -23 90 -32 109 -51 116 -36 14 -54
10 -85 -15z"/>
<path d="M1232 248 c3 -128 5 -153 18 -153 11 0 16 14 18 58 l3 57 40 0 c50 0
104 22 118 48 20 38 13 82 -18 113 -27 27 -35 29 -105 29 l-77 0 3 -152z m150
105 c21 -19 24 -76 4 -92 -8 -6 -37 -14 -65 -18 l-51 -6 0 67 0 66 47 0 c29 0
53 -6 65 -17z"/>
<path d="M2157 373 c-4 -3 -7 -17 -7 -30 0 -16 -6 -23 -20 -23 -11 0 -20 -4
-20 -10 0 -5 9 -10 20 -10 18 0 20 -7 20 -74 0 -41 4 -86 10 -100 10 -28 46
-42 86 -32 36 9 24 31 -17 31 l-34 0 -3 88 -3 87 36 0 c19 0 35 5 35 10 0 6
-16 10 -35 10 -32 0 -35 2 -35 30 0 28 -17 40 -33 23z"/>
<path d="M4027 374 c-4 -4 -7 -18 -7 -31 0 -16 -6 -23 -20 -23 -11 0 -20 -4
-20 -10 0 -5 9 -10 20 -10 18 0 20 -7 20 -85 0 -100 17 -129 73 -123 46 4 51
37 5 35 l-33 -2 -3 88 -3 87 36 0 c19 0 35 5 35 10 0 6 -15 10 -34 10 -30 0
-35 4 -38 27 -3 26 -18 39 -31 27z"/>
<path d="M1570 323 c-8 -3 -21 -12 -27 -21 -12 -14 -13 -14 -13 1 0 9 -7 17
-15 17 -12 0 -15 -19 -15 -115 0 -96 3 -115 15 -115 12 0 15 16 15 80 0 72 3
83 24 105 16 16 31 22 41 18 21 -7 40 18 22 29 -13 9 -25 9 -47 1z"/>
<path d="M1688 312 c-47 -28 -29 -53 19 -25 37 21 83 11 83 -17 0 -22 -20 -35
-72 -44 -63 -11 -89 -75 -48 -116 24 -24 67 -26 98 -4 21 15 25 15 42 -1 11
-10 26 -15 35 -12 19 8 20 27 1 27 -11 0 -15 21 -17 86 -4 76 -7 88 -28 105
-29 23 -77 24 -113 1z m86 -173 c-26 -29 -78 -22 -82 10 -5 29 9 43 56 56 36
11 37 10 40 -18 2 -17 -4 -37 -14 -48z"/>
<path d="M1950 318 c-58 -30 -75 -130 -32 -187 36 -48 111 -53 152 -9 29 31 9
46 -26 19 -57 -45 -114 -9 -114 70 0 77 58 112 114 68 23 -18 27 -19 32 -4 15
39 -75 69 -126 43z"/>
<path d="M2454 296 c-30 -30 -34 -40 -34 -86 0 -46 4 -56 34 -86 26 -26 43
-34 69 -34 37 0 87 32 87 56 0 20 -17 17 -40 -6 -61 -61 -143 25 -107 113 20
46 56 58 104 32 35 -19 47 -17 38 7 -8 20 -49 38 -86 38 -22 0 -41 -10 -65
-34z"/>
<path d="M2720 323 c-50 -19 -78 -87 -60 -151 13 -51 40 -73 93 -79 36 -4 48
-1 73 21 23 20 26 28 15 35 -9 6 -20 2 -32 -10 -26 -26 -65 -24 -94 6 -45 44
-35 55 55 55 l80 0 0 34 c0 48 -8 65 -41 81 -28 15 -62 18 -89 8z m84 -45 c29
-41 21 -48 -50 -48 -63 0 -65 1 -59 23 15 49 81 65 109 25z"/>
<path d="M3047 309 c-15 -11 -31 -38 -37 -60 -30 -109 65 -200 144 -138 l26
20 0 -65 c0 -52 3 -66 15 -66 13 0 15 24 15 160 0 136 -2 160 -15 160 -8 0
-15 -7 -15 -16 0 -13 -5 -12 -26 5 -34 27 -74 27 -107 0z m103 -27 c15 -12 24
-33 27 -64 5 -40 2 -50 -20 -72 -34 -34 -70 -33 -96 0 -61 77 16 195 89 136z"/>
<path d="M3574 296 c-29 -29 -34 -41 -34 -80 0 -79 39 -126 105 -126 32 0 73
19 79 37 11 27 -5 34 -31 13 -14 -11 -35 -20 -47 -20 -33 0 -66 28 -66 56 0
23 2 24 81 24 l82 0 -6 42 c-12 89 -99 118 -163 54z m110 -12 c9 -8 16 -24 16
-35 0 -17 -7 -19 -60 -19 -49 0 -60 3 -60 17 0 45 71 71 104 37z"/>
<path d="M3805 305 c-14 -13 -25 -30 -25 -37 0 -28 31 -56 74 -67 53 -13 75
-41 50 -65 -20 -21 -49 -20 -85 1 -31 18 -45 13 -35 -12 14 -37 99 -46 140
-14 50 40 27 94 -50 119 -41 13 -49 19 -49 40 0 20 6 26 27 28 15 2 37 -2 49
-8 32 -17 47 3 18 24 -35 24 -85 20 -114 -9z"/>
<path d="M4338 315 c-38 -21 -48 -45 -48 -109 0 -44 5 -61 24 -83 21 -24 32
-28 75 -28 42 0 55 5 78 28 24 24 28 35 28 87 0 51 -4 63 -26 86 -32 32 -93
41 -131 19z m102 -35 c15 -15 20 -33 20 -70 0 -37 -5 -55 -20 -70 -47 -47
-120 -4 -120 70 0 74 73 117 120 70z"/>
<path d="M4621 311 c-16 -16 -21 -17 -21 -6 0 8 -9 15 -20 15 -20 0 -21 -5
-18 -112 2 -93 6 -113 18 -113 12 0 16 19 20 88 5 95 18 117 66 117 43 0 54
-24 54 -121 0 -72 3 -89 15 -89 12 0 15 18 15 98 0 114 -8 131 -67 139 -33 4
-45 1 -62 -16z"/>
<path d="M4835 305 c-14 -13 -25 -30 -25 -37 0 -28 31 -56 74 -67 53 -13 75
-41 50 -65 -20 -21 -49 -20 -85 1 -31 18 -45 13 -35 -12 14 -37 99 -46 140
-14 50 40 27 94 -50 119 -41 13 -49 19 -49 40 0 20 6 26 27 28 15 2 37 -2 49
-8 32 -17 47 3 18 24 -35 24 -85 20 -114 -9z"/>
<path d="M2320 205 c0 -96 3 -115 15 -115 12 0 15 19 15 115 0 96 -3 115 -15
115 -12 0 -15 -19 -15 -115z"/>
<path d="M3290 227 c0 -85 2 -96 23 -115 30 -28 78 -29 103 -1 l18 20 8 -20
c18 -50 28 -17 28 94 0 96 -3 115 -15 115 -12 0 -15 -15 -15 -71 0 -93 -18
-129 -67 -129 -42 0 -53 25 -53 116 0 68 -3 84 -15 84 -12 0 -15 -17 -15 -93z"/>
<path d="M4190 205 c0 -96 3 -115 15 -115 12 0 15 19 15 115 0 96 -3 115 -15
115 -12 0 -15 -19 -15 -115z"/>
</g>
</svg>
